<?xml version="1.0" encoding="UTF-8" standalone="no"?>
<!DOCTYPE svg PUBLIC "-//W3C//DTD SVG 1.1//EN"
 "http://www.w3.org/Graphics/SVG/1.1/DTD/svg11.dtd">
<!-- Generated by graphviz version 2.38.0 (20140413.2041)
 -->
<!-- Title: G Pages: 1 -->
<svg width="1166pt" height="412pt"
 viewBox="0.00 0.00 1166.46 411.98" xmlns="http://www.w3.org/2000/svg" xmlns:xlink="http://www.w3.org/1999/xlink">
<g id="graph0" class="graph" transform="scale(1 1) rotate(0) translate(7.992 403.992)">
<title>G</title>
<polygon fill="#000000" stroke="none" points="-7.992,7.992 -7.992,-403.992 1158.47,-403.992 1158.47,7.992 -7.992,7.992"/>
<!-- app -->
<g id="node1" class="node"><title>app</title>
<ellipse fill="none" stroke="#c6c5fe" cx="691.687" cy="-378" rx="27" ry="18"/>
<text text-anchor="middle" x="691.687" y="-374.3" font-family="Arial" font-size="14.00" fill="#c6c5fe">app</text>
</g>
<!-- config/initializers/database -->
<g id="node2" class="node"><title>config/initializers/database</title>
<ellipse fill="none" stroke="#c6c5fe" cx="561.687" cy="-306" rx="118.079" ry="18"/>
<text text-anchor="middle" x="561.687" y="-302.3" font-family="Arial" font-size="14.00" fill="#c6c5fe">config/initializers/database</text>
</g>
<!-- app&#45;&gt;config/initializers/database -->
<g id="edge1" class="edge"><title>app&#45;&gt;config/initializers/database</title>
<path fill="none" stroke="#757575" d="M671.374,-366.062C652.714,-356.014 624.529,-340.838 601.403,-328.386"/>
<polygon fill="#757575" stroke="#757575" points="602.959,-325.248 592.495,-323.589 599.64,-331.412 602.959,-325.248"/>
</g>
<!-- config/initializers/server -->
<g id="node3" class="node"><title>config/initializers/server</title>
<ellipse fill="none" stroke="#c6c5fe" cx="822.687" cy="-306" rx="106.681" ry="18"/>
<text text-anchor="middle" x="822.687" y="-302.3" font-family="Arial" font-size="14.00" fill="#c6c5fe">config/initializers/server</text>
</g>
<!-- app&#45;&gt;config/initializers/server -->
<g id="edge2" class="edge"><title>app&#45;&gt;config/initializers/server</title>
<path fill="none" stroke="#757575" d="M712.155,-366.062C731.087,-355.947 759.745,-340.633 783.137,-328.134"/>
<polygon fill="#757575" stroke="#757575" points="784.968,-331.123 792.138,-323.324 781.669,-324.95 784.968,-331.123"/>
</g>
<!-- config/initializers/sampleData/dbSampleData -->
<g id="node4" class="node"><title>config/initializers/sampleData/dbSampleData</title>
<ellipse fill="none" stroke="#c6c5fe" cx="547.687" cy="-234" rx="193.866" ry="18"/>
<text text-anchor="middle" x="547.687" y="-230.3" font-family="Arial" font-size="14.00" fill="#c6c5fe">config/initializers/sampleData/dbSampleData</text>
</g>
<!-- config/initializers/database&#45;&gt;config/initializers/sampleData/dbSampleData -->
<g id="edge3" class="edge"><title>config/initializers/database&#45;&gt;config/initializers/sampleData/dbSampleData</title>
<path fill="none" stroke="#757575" d="M558.226,-287.697C556.683,-279.983 554.829,-270.712 553.109,-262.112"/>
<polygon fill="#757575" stroke="#757575" points="556.501,-261.224 551.108,-252.104 549.637,-262.597 556.501,-261.224"/>
</g>
<!-- config/pass -->
<g id="node12" class="node"><title>config/pass</title>
<ellipse fill="none" stroke="#c6c5fe" cx="822.687" cy="-234" rx="58.4896" ry="18"/>
<text text-anchor="middle" x="822.687" y="-230.3" font-family="Arial" font-size="14.00" fill="#c6c5fe">config/pass</text>
</g>
<!-- config/initializers/server&#45;&gt;config/pass -->
<g id="edge11" class="edge"><title>config/initializers/server&#45;&gt;config/pass</title>
<path fill="none" stroke="#757575" d="M822.687,-287.697C822.687,-279.983 822.687,-270.712 822.687,-262.112"/>
<polygon fill="#757575" stroke="#757575" points="826.187,-262.104 822.687,-252.104 819.187,-262.104 826.187,-262.104"/>
</g>
<!-- routes/index -->
<g id="node13" class="node"><title>routes/index</title>
<ellipse fill="none" stroke="#c6c5fe" cx="999.687" cy="-234" rx="61.1893" ry="18"/>
<text text-anchor="middle" x="999.687" y="-230.3" font-family="Arial" font-size="14.00" fill="#c6c5fe">routes/index</text>
</g>
<!-- config/initializers/server&#45;&gt;routes/index -->
<g id="edge12" class="edge"><title>config/initializers/server&#45;&gt;routes/index</title>
<path fill="none" stroke="#757575" d="M862.409,-289.291C889.972,-278.39 926.716,-263.858 955.253,-252.573"/>
<polygon fill="#757575" stroke="#757575" points="956.579,-255.812 964.591,-248.88 954.004,-249.303 956.579,-255.812"/>
</g>
<!-- config/initializers/sampleData/shops2 -->
<g id="node5" class="node"><title>config/initializers/sampleData/shops2</title>
<ellipse fill="none" stroke="#cfffac" cx="207.687" cy="-162" rx="163.271" ry="18"/>
<text text-anchor="middle" x="207.687" y="-158.3" font-family="Arial" font-size="14.00" fill="#cfffac">config/initializers/sampleData/shops2</text>
</g>
<!-- config/initializers/sampleData/dbSampleData&#45;&gt;config/initializers/sampleData/shops2 -->
<g id="edge4" class="edge"><title>config/initializers/sampleData/dbSampleData&#45;&gt;config/initializers/sampleData/shops2</title>
<path fill="none" stroke="#757575" d="M471.807,-217.378C418.192,-206.339 346.337,-191.546 291.11,-180.175"/>
<polygon fill="#757575" stroke="#757575" points="291.5,-176.682 281,-178.094 290.089,-183.539 291.5,-176.682"/>
</g>
<!-- config/initializers/sampleData/users -->
<g id="node6" class="node"><title>config/initializers/sampleData/users</title>
<ellipse fill="none" stroke="#cfffac" cx="543.687" cy="-162" rx="155.173" ry="18"/>
<text text-anchor="middle" x="543.687" y="-158.3" font-family="Arial" font-size="14.00" fill="#cfffac">config/initializers/sampleData/users</text>
</g>
<!-- config/initializers/sampleData/dbSampleData&#45;&gt;config/initializers/sampleData/users -->
<g id="edge5" class="edge"><title>config/initializers/sampleData/dbSampleData&#45;&gt;config/initializers/sampleData/users</title>
<path fill="none" stroke="#757575" d="M546.698,-215.697C546.257,-207.983 545.727,-198.712 545.236,-190.112"/>
<polygon fill="#757575" stroke="#757575" points="548.729,-189.888 544.664,-180.104 541.74,-190.288 548.729,-189.888"/>
</g>
<!-- controller/auth -->
<g id="node7" class="node"><title>controller/auth</title>
<ellipse fill="none" stroke="#ff6c60" cx="822.687" cy="-162" rx="68.4888" ry="18"/>
<text text-anchor="middle" x="822.687" y="-158.3" font-family="Arial" font-size="14.00" fill="#ff6c60">controller/auth</text>
</g>
<!-- config/initializers/sampleData/dbSampleData&#45;&gt;controller/auth -->
<g id="edge6" class="edge"><title>config/initializers/sampleData/dbSampleData&#45;&gt;controller/auth</title>
<path fill="none" stroke="#757575" d="M610.777,-216.941C657.363,-205.082 720.256,-189.073 765.405,-177.581"/>
<polygon fill="#757575" stroke="#757575" points="766.502,-180.913 775.329,-175.055 764.775,-174.13 766.502,-180.913"/>
</g>
<!-- controller/shopController -->
<g id="node8" class="node"><title>controller/shopController</title>
<ellipse fill="none" stroke="#c6c5fe" cx="1038.69" cy="-162" rx="111.581" ry="18"/>
<text text-anchor="middle" x="1038.69" y="-158.3" font-family="Arial" font-size="14.00" fill="#c6c5fe">controller/shopController</text>
</g>
<!-- config/initializers/sampleData/dbSampleData&#45;&gt;controller/shopController -->
<g id="edge7" class="edge"><title>config/initializers/sampleData/dbSampleData&#45;&gt;controller/shopController</title>
<path fill="none" stroke="#757575" d="M648.53,-218.623C736.447,-206.089 862.838,-188.07 947.711,-175.97"/>
<polygon fill="#757575" stroke="#757575" points="948.444,-179.401 957.85,-174.525 947.456,-172.471 948.444,-179.401"/>
</g>
<!-- helpers/database -->
<g id="node9" class="node"><title>helpers/database</title>
<ellipse fill="none" stroke="#cfffac" cx="501.687" cy="-18" rx="81.7856" ry="18"/>
<text text-anchor="middle" x="501.687" y="-14.3" font-family="Arial" font-size="14.00" fill="#cfffac">helpers/database</text>
</g>
<!-- config/initializers/sampleData/dbSampleData&#45;&gt;helpers/database -->
<g id="edge8" class="edge"><title>config/initializers/sampleData/dbSampleData&#45;&gt;helpers/database</title>
<path fill="none" stroke="#757575" d="M370.751,-226.662C227.942,-219.673 47.0251,-205.818 23.6867,-180 -90.0376,-54.1928 241.876,-26.593 410.248,-20.6112"/>
<polygon fill="#757575" stroke="#757575" points="410.48,-24.1054 420.357,-20.271 410.244,-17.1094 410.48,-24.1054"/>
</g>
<!-- models/Shop -->
<g id="node10" class="node"><title>models/Shop</title>
<ellipse fill="none" stroke="#c6c5fe" cx="726.687" cy="-90" rx="65.7887" ry="18"/>
<text text-anchor="middle" x="726.687" y="-86.3" font-family="Arial" font-size="14.00" fill="#c6c5fe">models/Shop</text>
</g>
<!-- config/initializers/sampleData/dbSampleData&#45;&gt;models/Shop -->
<g id="edge9" class="edge"><title>config/initializers/sampleData/dbSampleData&#45;&gt;models/Shop</title>
<path fill="none" stroke="#757575" d="M644.682,-218.305C668.146,-210.448 691.186,-198.415 707.687,-180 722.632,-163.32 726.852,-137.825 727.642,-118.391"/>
<polygon fill="#757575" stroke="#757575" points="731.143,-118.357 727.774,-108.312 724.143,-118.265 731.143,-118.357"/>
</g>
<!-- models/User -->
<g id="node11" class="node"><title>models/User</title>
<ellipse fill="none" stroke="#c6c5fe" cx="540.687" cy="-90" rx="63.8893" ry="18"/>
<text text-anchor="middle" x="540.687" y="-86.3" font-family="Arial" font-size="14.00" fill="#c6c5fe">models/User</text>
</g>
<!-- config/initializers/sampleData/dbSampleData&#45;&gt;models/User -->
<g id="edge10" class="edge"><title>config/initializers/sampleData/dbSampleData&#45;&gt;models/User</title>
<path fill="none" stroke="#757575" d="M372.381,-226.263C233.218,-219.059 58.3356,-205.114 35.6867,-180 24.9713,-168.118 24.9797,-155.89 35.6867,-144 64.0387,-112.517 334.587,-98.4302 467.592,-93.3664"/>
<polygon fill="#757575" stroke="#757575" points="467.838,-96.8598 477.701,-92.9889 467.577,-89.8647 467.838,-96.8598"/>
</g>
<!-- controller/auth&#45;&gt;controller/auth -->
<g id="edge14" class="edge"><title>controller/auth&#45;&gt;controller/auth</title>
<path fill="none" stroke="#757575" d="M869.265,-175.262C890.485,-176.616 908.931,-172.195 908.931,-162 908.931,-153.477 896.041,-148.99 879.416,-148.538"/>
<polygon fill="#757575" stroke="#757575" points="879.194,-145.042 869.265,-148.738 879.332,-152.04 879.194,-145.042"/>
</g>
<!-- controller/auth&#45;&gt;models/User -->
<g id="edge15" class="edge"><title>controller/auth&#45;&gt;models/User</title>
<path fill="none" stroke="#757575" d="M774.849,-149.125C725.542,-136.886 648.724,-117.818 596.633,-104.887"/>
<polygon fill="#757575" stroke="#757575" points="597.432,-101.48 586.883,-102.467 595.746,-108.273 597.432,-101.48"/>
</g>
<!-- controller/shopController&#45;&gt;models/Shop -->
<g id="edge16" class="edge"><title>controller/shopController&#45;&gt;models/Shop</title>
<path fill="none" stroke="#757575" d="M976.299,-147.003C920.886,-134.57 840.466,-116.527 786.002,-104.308"/>
<polygon fill="#757575" stroke="#757575" points="786.671,-100.871 776.147,-102.097 785.138,-107.701 786.671,-100.871"/>
</g>
<!-- models/Shop&#45;&gt;helpers/database -->
<g id="edge17" class="edge"><title>models/Shop&#45;&gt;helpers/database</title>
<path fill="none" stroke="#757575" d="M684.893,-75.9976C648.809,-64.7713 596.403,-48.4672 556.876,-36.1699"/>
<polygon fill="#757575" stroke="#757575" points="557.71,-32.764 547.122,-33.1353 555.63,-39.448 557.71,-32.764"/>
</g>
<!-- middleware/couchdb&#45;model -->
<g id="node14" class="node"><title>middleware/couchdb&#45;model</title>
<ellipse fill="none" stroke="#cfffac" cx="726.687" cy="-18" rx="124.578" ry="18"/>
<text text-anchor="middle" x="726.687" y="-14.3" font-family="Arial" font-size="14.00" fill="#cfffac">middleware/couchdb&#45;model</text>
</g>
<!-- models/Shop&#45;&gt;middleware/couchdb&#45;model -->
<g id="edge18" class="edge"><title>models/Shop&#45;&gt;middleware/couchdb&#45;model</title>
<path fill="none" stroke="#757575" d="M726.687,-71.6966C726.687,-63.9827 726.687,-54.7125 726.687,-46.1124"/>
<polygon fill="#757575" stroke="#757575" points="730.187,-46.1043 726.687,-36.1043 723.187,-46.1044 730.187,-46.1043"/>
</g>
<!-- models/User&#45;&gt;helpers/database -->
<g id="edge19" class="edge"><title>models/User&#45;&gt;helpers/database</title>
<path fill="none" stroke="#757575" d="M531.246,-72.055C526.762,-64.0067 521.301,-54.2046 516.298,-45.2259"/>
<polygon fill="#757575" stroke="#757575" points="519.236,-43.3075 511.312,-36.2753 513.121,-46.7145 519.236,-43.3075"/>
</g>
<!-- models/User&#45;&gt;middleware/couchdb&#45;model -->
<g id="edge20" class="edge"><title>models/User&#45;&gt;middleware/couchdb&#45;model</title>
<path fill="none" stroke="#757575" d="M577.434,-75.1703C605.139,-64.7439 643.511,-50.3026 674.41,-38.674"/>
<polygon fill="#757575" stroke="#757575" points="676.03,-41.804 684.157,-35.0059 673.565,-35.2525 676.03,-41.804"/>
</g>
<!-- config/pass&#45;&gt;controller/auth -->
<g id="edge13" class="edge"><title>config/pass&#45;&gt;controller/auth</title>
<path fill="none" stroke="#757575" d="M822.687,-215.697C822.687,-207.983 822.687,-198.712 822.687,-190.112"/>
<polygon fill="#757575" stroke="#757575" points="826.187,-190.104 822.687,-180.104 819.187,-190.104 826.187,-190.104"/>
</g>
<!-- routes/index&#45;&gt;controller/shopController -->
<g id="edge21" class="edge"><title>routes/index&#45;&gt;controller/shopController</title>
<path fill="none" stroke="#757575" d="M1009.13,-216.055C1013.61,-208.007 1019.07,-198.205 1024.08,-189.226"/>
<polygon fill="#757575" stroke="#757575" points="1027.25,-190.714 1029.06,-180.275 1021.14,-187.308 1027.25,-190.714"/>
</g>
</g>
</svg>
